<svg width="65" height="44" viewBox="0 0 65 44" fill="none" xmlns="http://www.w3.org/2000/svg">
<path d="M50.3894 34.0283C52.8859 34.0283 54.061 33.0757 55.0873 30.1883L59.5837 17.5769H56.9803L53.9652 27.3339H53.9123L50.8971 17.5901H48.22L52.5578 29.5936L52.3254 30.3237C52.1613 31.3688 51.2231 32.1143 50.167 32.0372C49.9655 32.0372 49.5745 32.0163 49.4159 31.9954V33.9776C49.7386 34.0217 50.0646 34.0426 50.3894 34.0415V34.0283ZM41.7139 27.7127C40.3484 27.7127 39.4817 27.0519 39.4817 26.052C39.4817 25.0158 40.3175 24.4123 41.9154 24.3165L44.761 24.137V25.0686C44.6982 26.6037 43.4021 27.7986 41.867 27.7358C41.8152 27.7336 41.7646 27.7292 41.7139 27.7248V27.7127ZM41.0267 29.6696C42.5762 29.7114 44.0254 28.9042 44.804 27.564H44.8568V29.5462H47.2267V21.3365C47.2267 18.9557 45.3226 17.4216 42.3912 17.4216C39.6722 17.4216 37.6613 18.9766 37.5876 21.1141H39.8947C40.17 20.0272 41.2029 19.3103 42.3174 19.4314C43.8833 19.4314 44.761 20.1615 44.761 21.505V22.4146L41.5674 22.6052C38.5941 22.7847 36.9863 24.0015 36.9863 26.1181C36.9841 28.2644 38.6447 29.6817 41.0256 29.6817L41.0267 29.6696ZM27.2932 15.2071H30.2445C32.4668 15.2071 33.7365 16.392 33.7365 18.4766C33.7365 20.5613 32.4668 21.7561 30.2346 21.7561H27.2932V15.2071ZM24.7328 13.0486V29.5429H27.2932V23.92H30.8381C33.7255 24.0753 36.1912 21.8607 36.3465 18.9733C36.3553 18.8092 36.3564 18.6462 36.3498 18.4821C36.4863 15.6266 34.2828 13.2017 31.4272 13.064C31.2588 13.0563 31.0914 13.0574 30.9229 13.0651L24.7328 13.0486ZM16.2346 16.1266C14.7633 16.0418 13.5046 16.9624 12.8064 16.9624C12.1083 16.9624 11.029 16.1695 9.86503 16.1916C8.3233 16.2312 6.91812 17.0847 6.17259 18.4348C4.58571 21.1647 5.75963 25.2063 7.29365 27.4275C8.04469 28.5287 8.9455 29.7346 10.1293 29.6916C11.2504 29.6498 11.6953 28.9615 13.0498 28.9615C14.4043 28.9615 14.8063 29.6916 15.9912 29.6696C17.218 29.6487 17.9911 28.5683 18.7443 27.4671C19.2751 26.6874 19.6881 25.834 19.9711 24.9343C18.5252 24.3022 17.588 22.8783 17.5803 21.3002C17.6023 19.9082 18.3313 18.6242 19.5163 17.8941C18.7608 16.8215 17.5484 16.1629 16.2368 16.1167L16.2346 16.1266ZM15.3162 14.6696C14.6719 15.4813 13.6863 15.9471 12.6501 15.9284C12.584 14.9174 12.9276 13.923 13.6026 13.1676C14.2744 12.3879 15.2214 11.8989 16.2456 11.8031C16.3183 12.8427 15.9846 13.8691 15.314 14.6663" fill="black"/>
</svg>
