<svg width="65" height="44" viewBox="0 0 65 44" fill="none" xmlns="http://www.w3.org/2000/svg">
<path d="M31.0339 23.1225V29.3839H29.0337V13.9211H34.3386C34.9718 13.9079 35.6014 14.0195 36.191 14.2492C36.7806 14.479 37.3185 14.8224 37.7737 15.2597C38.2335 15.6705 38.5995 16.1742 38.847 16.7371C39.0945 17.2999 39.2178 17.9089 39.2087 18.523C39.2218 19.1404 39.1004 19.7534 38.8527 20.3198C38.6051 20.8863 38.237 21.3929 37.7737 21.8048C36.8461 22.6833 35.701 23.1221 34.3386 23.1213H31.0339V23.1225ZM31.0339 15.8248V21.2225H34.3883C34.756 21.2333 35.122 21.1678 35.4628 21.0302C35.8036 20.8925 36.1117 20.6857 36.3674 20.423C36.6217 20.1774 36.8239 19.8837 36.962 19.5591C37.1001 19.2346 37.1712 18.8858 37.1712 18.5335C37.1712 18.1812 37.1001 17.8324 36.962 17.5079C36.8239 17.1834 36.6217 16.8896 36.3674 16.644C36.1149 16.3758 35.8078 16.1639 35.4666 16.0225C35.1254 15.881 34.7579 15.8132 34.3883 15.8235H31.0339V15.8248Z" fill="#5F6368"/>
<path d="M43.8181 18.4587C45.2965 18.4587 46.4635 18.8511 47.3191 19.6358C48.1747 20.4204 48.602 21.4963 48.6012 22.8633V29.3837H46.688V27.9156H46.601C45.7728 29.1246 44.6712 29.7292 43.2963 29.7292C42.1227 29.7292 41.1408 29.3837 40.3507 28.6928C39.9715 28.3757 39.6683 27.9786 39.4633 27.5304C39.2582 27.0821 39.1565 26.5941 39.1655 26.1019C39.1655 25.0072 39.5821 24.1365 40.4153 23.49C41.2485 22.8435 42.3608 22.5195 43.7523 22.5178C44.94 22.5178 45.9181 22.7337 46.6867 23.1656V22.7115C46.689 22.376 46.616 22.0441 46.4731 21.74C46.3302 21.4359 46.121 21.1672 45.8606 20.9534C45.3316 20.4795 44.6423 20.2209 43.9299 20.2292C42.8126 20.2292 41.9285 20.6972 41.2775 21.6332L39.5158 20.5315C40.4849 19.1496 41.919 18.4587 43.8181 18.4587ZM41.2303 26.1451C41.2289 26.3979 41.2884 26.6474 41.4038 26.8727C41.5192 27.098 41.6872 27.2927 41.8937 27.4406C42.3361 27.7861 42.8851 27.9692 43.4479 27.9587C44.2919 27.9573 45.101 27.6237 45.6978 27.0309C46.3604 26.4116 46.6917 25.6849 46.6917 24.8509C46.068 24.3574 45.1984 24.1106 44.0827 24.1106C43.2702 24.1106 42.5927 24.3051 42.0502 24.6942C41.5023 25.089 41.2303 25.5689 41.2303 26.1451Z" fill="#5F6368"/>
<path d="M59.5827 18.8043L52.9037 34.0474H50.8389L53.3174 28.7139L48.9257 18.8043H51.0998L54.274 26.4043H54.3175L57.4048 18.8043H59.5827Z" fill="#5F6368"/>
<path d="M22.951 21.7727C22.9518 21.1674 22.9002 20.5631 22.797 19.9665H14.3613V23.3877H19.1929C19.094 23.9341 18.8847 24.455 18.5777 24.919C18.2707 25.3829 17.8722 25.7803 17.4064 26.0872V28.308H20.2899C21.9783 26.7621 22.951 24.4759 22.951 21.7727Z" fill="#4285F4"/>
<path d="M14.3609 30.4536C16.7748 30.4536 18.8073 29.6664 20.2895 28.3093L17.4059 26.0885C16.6034 26.6289 15.5697 26.9373 14.3609 26.9373C12.0277 26.9373 10.0474 25.3754 9.33927 23.2706H6.36877V25.5592C7.11328 27.0304 8.2549 28.2672 9.66618 29.1315C11.0775 29.9958 12.7029 30.4535 14.3609 30.4536Z" fill="#34A853"/>
<path d="M9.33948 23.2706C8.96511 22.1676 8.96511 20.9732 9.33948 19.8703V17.5817H6.36899C5.74268 18.8193 5.4165 20.1853 5.4165 21.5704C5.4165 22.9556 5.74268 24.3215 6.36899 25.5592L9.33948 23.2706Z" fill="#FBBC04"/>
<path d="M14.3609 16.2035C15.6365 16.1828 16.8692 16.6615 17.7923 17.536L20.3454 15.0006C18.7265 13.4906 16.5818 12.6615 14.3609 12.6873C12.7029 12.6874 11.0775 13.1451 9.66618 14.0093C8.2549 14.8736 7.11328 16.1104 6.36877 17.5816L9.33927 19.8703C10.0474 17.7655 12.0277 16.2035 14.3609 16.2035Z" fill="#EA4335"/>
</svg>
