<svg width="65" height="44" viewBox="0 0 65 44" fill="none" xmlns="http://www.w3.org/2000/svg">
<path d="M43.6802 13.5851C43.6802 13.7589 43.6802 13.9327 43.5064 14.1065C42.116 21.0584 37.5973 23.3178 31.6882 23.3178H28.7336C28.0385 23.3178 27.3433 23.8392 27.3433 24.5343L25.7791 34.267L25.4315 37.0477C25.4315 37.5691 25.7791 37.9167 26.1267 37.9167H31.5144C32.2096 37.9167 32.731 37.3953 32.731 36.8739V36.5263L33.7738 30.2696V29.922C33.9476 29.2269 34.469 28.8793 34.9903 28.8793H35.8593C41.0732 28.8793 45.0705 26.7937 46.1133 20.7108C46.6347 18.1039 46.2871 16.0183 45.0706 14.6279C44.723 14.2803 44.2016 13.9327 43.6802 13.5851Z" fill="#2199D6"/>
<path d="M42.2889 13.0638C42.1151 13.0638 41.9413 12.89 41.5937 12.89C41.4199 12.89 41.0723 12.7162 40.8985 12.7162C40.0296 12.5424 39.1606 12.5424 38.2916 12.5424H30.2969C30.1232 12.5424 29.9493 12.5424 29.7756 12.7162C29.428 12.89 29.0804 13.2376 29.0804 13.5852L27.3424 24.3606V24.7082C27.5162 24.013 28.0376 23.4916 28.7328 23.4916H31.6873C37.5964 23.4916 42.1151 21.0585 43.5055 14.2804C43.5055 14.1066 43.5055 13.9328 43.6793 13.759C43.3317 13.5852 42.9841 13.4114 42.6365 13.2376C42.4627 13.0638 42.2889 13.0638 42.2889 13.0638Z" fill="#252C5E"/>
<path d="M29.0805 13.5851C29.0805 13.2375 29.4281 12.8899 29.7757 12.7161C29.9495 12.7161 30.1233 12.5424 30.2971 12.5424H38.2917C39.1607 12.5424 40.2035 12.5424 40.8987 12.7161C41.0725 12.7161 41.4201 12.7162 41.5939 12.8899C41.7677 12.8899 41.9415 13.0637 42.2891 13.0637C42.4629 13.0637 42.4629 13.0637 42.6367 13.2375C42.9842 13.4113 43.3318 13.5851 43.6794 13.7589C44.027 11.152 43.6794 9.41401 42.2891 7.84984C40.7249 6.11187 37.9441 5.41669 34.4682 5.41669H24.2142C23.519 5.41669 22.8238 5.93807 22.8238 6.63326L18.6527 33.398C18.6527 33.9194 19.0003 34.4408 19.5217 34.4408H25.7784L27.3426 24.3605L29.0805 13.5851Z" fill="#263577"/>
</svg>
