<svg width="23" height="23" viewBox="0 0 23 23" fill="none" xmlns="http://www.w3.org/2000/svg">
<path d="M20.125 5.73081C16.9337 5.41456 13.7233 5.25165 10.5225 5.25165C8.625 5.25165 6.7275 5.34748 4.83 5.53915L2.875 5.73081" stroke="#F43A00" stroke-width="1.5" stroke-linecap="round" stroke-linejoin="round"/>
<path d="M8.14587 4.76294L8.35671 3.50752C8.51004 2.5971 8.62504 1.91669 10.2446 1.91669H12.7555C14.375 1.91669 14.4996 2.63544 14.6434 3.5171L14.8542 4.76294" stroke="#F43A00" stroke-width="1.5" stroke-linecap="round" stroke-linejoin="round"/>
<path d="M18.0646 8.75916L17.4417 18.4096C17.3363 19.9142 17.25 21.0833 14.5763 21.0833H8.42376C5.75001 21.0833 5.66376 19.9142 5.55834 18.4096L4.93542 8.75916" stroke="#F43A00" stroke-width="1.5" stroke-linecap="round" stroke-linejoin="round"/>
<path d="M9.89954 15.8125H13.0908" stroke="#F43A00" stroke-width="1.5" stroke-linecap="round" stroke-linejoin="round"/>
<path d="M9.10413 11.9792H13.8958" stroke="#F43A00" stroke-width="1.5" stroke-linecap="round" stroke-linejoin="round"/>
</svg>
